{"title":"X-Men Apocalypse 2016 BRRip x264 AAC-SSN","uid":15793645,"size":1741247770,"categoryP":"video","categoryS":"movies","magnet":"?xt=urn:btih:311b4d1b1afdcd8b089ac0fd8f71e99aa4038100&amp;dn=X-Men+Apocalypse+2016+BRRip+x264+AAC-SSN&amp;tr=udp%3A%2F%2Ftracker.leechers-paradise.org%3A6969&amp;tr=udp%3A%2F%2Fzer0day.ch%3A1337&amp;tr=udp%3A%2F%2Fopen.demonii.com%3A1337&amp;tr=udp%3A%2F%2Ftracker.coppersurfer.tk%3A6969&amp;tr=udp%3A%2F%2Fexodus.desync.com%3A6969","seeders":2,"leechers":0,"uploader":"somespirit","files":3,"time":1473419489,"description":"IMDB:  http://www.imdb.com/title/tt3385516/              \r\n\r\n Source: X-Men.Apocalypse.2016.720p.BluRay.x264-VETO\r\n\r\n\r\n Subtitles: English for foreign parts\r\n\r\n\r\n\r\n General\r\n Complete name                            : X-Men Apocalypse 2016 BRRip x264 AAC-SSN.mkv\r\n Format                                   : Matroska\r\n Format version                           : Version 4 / Version 2\r\n File size                                : 1.62 GiB\r\n Duration                                 : 2 h 23 min\r\n Overall bit rate                         : 1 613 kb/s\r\n Encoded date                             : UTC 2016-09-09 08:57:55\r\n Writing application                      : mkvmerge v8.6.1 ('Flying') 64bit\r\n Writing library                          : libebml v1.3.3 + libmatroska v1.4.4\r\n\r\n Video\r\n ID                                       : 1\r\n Format                                   : AVC\r\n Format/Info                              : Advanced Video Codec\r\n Format profile                           :   \r\n Format settings, CABAC                   : Yes\r\n Format settings, ReFrames                : 5 frames\r\n Codec ID                                 : V_MPEG4/ISO/AVC\r\n Duration                                 : 2 h 23 min\r\n Bit rate                                 : 1 282 kb/s\r\n Width                                    : 900 pixels\r\n Height                                   : 376 pixels\r\n Display aspect ratio                     : 2.40:1\r\n Frame rate mode                          : Constant\r\n Frame rate                               : 23.976 (24000/1001) FPS\r\n Color space                              : YUV\r\n Chroma subsampling                       : 4:2:0\r\n Bit depth                                : 8 bits\r\n Scan type                                : Progressive\r\n Bits/(Pixel*Frame)                       : 0.190\r\n Stream size                              : 1.29 GiB (79%)\r\n Writing library                          : x264 core 148 r2705 3f5ed56\r\n Language                                 : English\r\n Default                                  : Yes\r\n Forced                                   : No\r\n\r\n Audio\r\n ID                                       : 2\r\n Format                                   : AAC\r\n Format/Info                              : Advanced Audio Codec\r\n Format profile                           : LC\r\n Codec ID                                 : A_AAC\r\n Duration                                 : 2 h 23 min\r\n Bit rate                                 : 330 kb/s\r\n Channel(s)                               : 6 channels\r\n Channel positions                        : Front: L C R, Side: L R, LFE\r\n Sampling rate                            : 32.0 kHz\r\n Frame rate                               : 31.250 FPS (1024 spf)\r\n Compression mode                         : Lossy\r\n Stream size                              : 340 MiB (20%)\r\n Language                                 : English\r\n Default                                  : Yes\r\n Forced                                   : No\r\n\r\n\r\n \nhttps://lookpic.com/O/i2/278/GTODePWA.png\r\n \nhttps://lookpic.com/O/i2/298/hWw5H8qt.png\r\n \nhttps://lookpic.com/O/i2/654/7oEKJHaH.png","torrent":{"xt":"urn:btih:311b4d1b1afdcd8b089ac0fd8f71e99aa4038100","amp;dn":"X-Men+Apocalypse+2016+BRRip+x264+AAC-SSN","amp;tr":["udp%3A%2F%2Ftracker.leechers-paradise.org%3A6969","udp%3A%2F%2Fzer0day.ch%3A1337","udp%3A%2F%2Fopen.demonii.com%3A1337","udp%3A%2F%2Ftracker.coppersurfer.tk%3A6969","udp%3A%2F%2Fexodus.desync.com%3A6969"],"infoHash":"311b4d1b1afdcd8b089ac0fd8f71e99aa4038100","infoHashBuffer":{"type":"Buffer","data":[49,27,77,27,26,253,205,139,8,154,192,253,143,113,233,154,164,3,129,0]},"announce":[],"urlList":[]}}